# Blender v2.81 (sub 16) OBJ File: 'triforce.blend'
# www.blender.org
o Cube
v 0.500000 -0.366025 -0.125000
v 0.000000 0.500000 0.125000
v 0.500000 -0.366025 0.125000
v 0.000000 0.500000 -0.125000
v -0.500000 -0.366025 -0.125000
v -0.500000 -0.366025 0.125000
v -0.250000 0.066987 -0.125000
v -0.250000 0.066987 0.125000
v 0.249879 0.067196 0.125000
v 0.249879 0.067196 -0.125000
v -0.001683 -0.366025 -0.125000
v -0.001683 -0.366025 0.125000
v 0.500000 -0.366025 -0.125000
v 0.000000 0.500000 0.125000
v 0.500000 -0.366025 0.125000
v 0.000000 0.500000 -0.125000
v -0.500000 -0.366025 -0.125000
v -0.500000 -0.366025 0.125000
v -0.250000 0.066987 -0.125000
v -0.250000 0.066987 0.125000
v 0.249879 0.067196 0.125000
v 0.249879 0.067196 -0.125000
v -0.001683 -0.366025 -0.125000
v -0.001683 -0.366025 0.125000
v -0.500000 -0.366025 -0.125000
v -0.500000 -0.366025 0.125000
v -0.001683 -0.366025 -0.125000
v 0.249879 0.067196 0.125000
v 0.500000 -0.366025 0.125000
v -0.001683 -0.366025 0.125000
v 0.500000 -0.366025 -0.125000
v 0.249879 0.067196 -0.125000
v 0.000000 0.500000 -0.125000
v 0.000000 0.500000 0.125000
v -0.250000 0.066987 0.125000
v -0.250000 0.066987 -0.125000
v -0.500000 -0.366025 -0.125000
v -0.500000 -0.366025 0.125000
v -0.001683 -0.366025 -0.125000
v 0.249879 0.067196 0.125000
v 0.500000 -0.366025 0.125000
v -0.001683 -0.366025 0.125000
v 0.500000 -0.366025 -0.125000
v 0.249879 0.067196 -0.125000
v 0.000000 0.500000 -0.125000
v 0.000000 0.500000 0.125000
v -0.250000 0.066987 0.125000
v -0.250000 0.066987 -0.125000
vt 0.000000 0.000000
vt 0.000000 0.000000
vt 0.000000 0.000000
vt 0.000000 0.000000
vt 0.000000 0.000000
vt 0.000000 0.000000
vt 0.000000 0.000000
vt 0.000000 0.000000
vt 0.000000 0.000000
vt 0.000000 0.000000
vt 0.000000 0.000000
vt 0.000000 0.000000
vn -0.0000 0.0000 1.0000
vn -0.8660 0.5000 0.0000
vn 0.0000 0.0000 -1.0000
vn 0.8660 0.5000 0.0000
vn 0.0004 -1.0000 0.0000
vn 0.8675 0.4975 0.0000
vn -0.8648 0.5022 0.0000
vn 0.0000 -1.0000 0.0000
s off
f 46/1/1 47/2/1 40/3/1
f 48/4/2 47/2/2 46/1/2 45/5/2
f 48/4/3 45/5/3 44/6/3
f 46/1/4 40/3/4 44/6/4 45/5/4
f 40/3/5 47/2/5 48/4/5 44/6/5
f 43/7/4 44/6/4 40/3/4 41/8/4
f 38/9/2 47/2/2 48/4/2 37/10/2
f 42/11/1 41/8/1 40/3/1
f 38/9/1 42/11/1 47/2/1
f 48/4/6 47/2/6 42/11/6 39/12/6
f 40/3/7 44/6/7 39/12/7 42/11/7
f 43/7/3 39/12/3 44/6/3
f 48/4/3 39/12/3 37/10/3
f 43/7/8 41/8/8 42/11/8 39/12/8
f 38/9/8 37/10/8 39/12/8 42/11/8
l 5 6
l 11 5
l 9 3
l 12 3
l 3 1
l 10 1
l 4 2
l 8 7
l 2 9
l 7 5
l 4 10
l 6 8
l 10 9
l 1 11
l 6 12
l 8 2
l 4 7
l 11 12
l 9 12
l 8 9
l 12 8
l 11 10
l 10 7
l 7 11
l 18 6
l 5 17
l 14 2
l 8 20
l 21 9
l 19 7
l 11 23
l 16 4
l 3 15
l 12 24
l 22 10
l 13 1
l 25 26
l 27 25
l 28 29
l 30 29
l 29 31
l 32 31
l 33 34
l 35 36
l 34 28
l 36 25
l 33 32
l 26 35
l 32 28
l 31 27
l 26 30
l 35 34
l 33 36
l 27 30
l 28 30
l 35 28
l 30 35
l 27 32
l 32 36
l 36 27
l 38 26
l 25 37
l 46 34
l 35 47
l 40 28
l 48 36
l 27 39
l 45 33
l 29 41
l 30 42
l 44 32
l 43 31
l 21 40
l 46 14
l 19 48
l 39 23
l 17 37
l 16 45
l 41 15
l 42 24
l 22 44
l 18 38
l 47 20
l 13 43
